<svg version="1.2" xmlns="http://www.w3.org/2000/svg" viewBox="0 0 994 821" width="1000" height="1000">
	<title>Crab-eps</title>
	<defs>
		<clipPath clipPathUnits="userSpaceOnUse" id="cp1">
			<path d="m0 0h994v821h-994z"/>
		</clipPath>
	</defs>
	<style>
		.s0 { fill: #6b5333 } 
		.s1 { fill: #fe8e46 } 
		.s2 { fill: #e56823 } 
		.s3 { fill: #ffffff } 
	</style>
	<g id="Page 1" clip-path="url(#cp1)">
		<path id="Path 1" class="s0" d="m733.2 491c-10.6 0-20-7.3-22.7-18-3-12.7 4.7-25 17.4-28.3 75-18 77-61.7 77-62 0-13 10.3-23.4 23.3-23.4 13 0 23.3 10.4 23.3 23.4 0 3.3-1.3 80.3-112.6 107.3-2 0.7-4 1-5.7 1z"/>
		<path id="Path 2" class="s1" d="m829.2 24.3l90.7 151.7c28 46.7 29.6 105.3 2 152.7-17.4 29.6-45.7 54.3-92.7 54.3-119.7 0-119.7-162-119.7-239l110.7 78.7z"/>
		<path id="Path 3" class="s2" d="m852.5 235.3l-30.6-51.3 7-160 90.6 151.7c28.1 46.6 29.7 105.3 2 152.6-13.3 22.7-33 42.4-62.3 50.4 22.7-45.4 19.7-99.7-6.7-143.4z"/>
		<path id="Path 4" fill-rule="evenodd" class="s0" d="m829.2 406c-43.3 0-100.7-18.7-127-107.3-16-53.4-16-114.7-16-155 0-8.7 5-16.7 12.7-20.7 7.6-4 17-3.3 24.3 1.7l75.7 53.6 7-155.3c0.3-10.3 7.6-19 17.6-21.7 10-2.6 20.4 1.7 25.7 10.7l90.7 151.7c32.7 54.6 33.6 122.3 2.3 176.3-25.3 43.3-64.3 66-113 66zm-95.3-216.7c3.6 93 22.6 170 95.3 170 32 0 56-14 72.7-42.6 23-39.4 22-88.7-2-129l-50.7-85-5.3 120.3c-0.4 8.7-5.4 16.3-13 20-7.7 3.7-16.7 3-23.7-2zm234.3 378.3c-6 0-12.3-2.3-16.6-7l-15.7-16c-25-26-63-34.3-96.7-21l-50.3 19.7c-12 4.7-25.7-1.3-30.3-13.3-4.7-12 1.3-25.7 13.3-30.4l50.7-19.6c51.3-20 109-7.4 147 32.3l15.6 16c9 9.3 8.7 24-0.6 33-4.7 4.3-10.4 6.3-16.4 6.3zm-42.3 95.7c-7.7 0-15.3-3.7-19.7-10.7-19.6-30.6-57-46.3-92.6-39l-15.4 3c-12.6 2.7-25-5.6-27.6-18.3-2.7-12.7 5.6-25 18.3-27.7l15.3-3c54.7-11 111.4 12.7 141.4 59.7 7 11 3.6 25.3-7 32.3-4 2.7-8.4 3.7-12.7 3.7zm-51.3 122.3c-8 0-16-4.3-20.4-12l-6.6-12c-15.7-28-45.7-45.3-77.7-45.3h-19.3c-13 0-23.4-10.3-23.4-23.3 0-13 10.4-23.4 23.4-23.4h19.3c49 0 94.3 26.7 118.3 69.4l6.7 12c6.3 11.3 2.3 25.3-9 31.6-3.7 2-7.7 3-11.3 3z"/>
		<path id="Path 5" class="s1" d="m767.9 499l-48-50.3c-45.7-48-108.7-75-174.7-75h-95c-66 0-129.3 27-174.7 75l-48 50.3c-27.6 29-36.3 71.3-22.6 109 27 74.3 79.6 187.7 150.3 187.7h285.3c71 0 123.7-113.4 150.4-187.7 13.3-37.7 4.6-79.7-23-109z"/>
		<path id="Path 6" class="s2" d="m640.2 693h-285.3c-65.7 0-115.7-97.3-144-171-14 26-16.7 57.3-6.4 86 27 74.3 79.7 187.7 150.4 187.7h285.3c71 0 123.7-113.4 150.3-187.7 10.4-28.7 7.7-60-6.3-86-28.3 73.7-78.3 171-144 171z"/>
		<path id="Path 7" class="s1" d="m162.5 24.3l-90.6 151.7c-28 46.7-29.7 105.3-2 152.7 17.3 29.6 45.6 54.3 92.6 54.3 119.7 0 119.7-162 119.7-239l-110.6 78.7z"/>
		<path id="Path 8" class="s2" d="m139.2 235.3l30.7-51.3-7-160-90.7 151.7c-28 46.6-29.7 105.3-2 152.6 13.3 22.7 33 42.4 62.3 50.4-22.6-45.4-19.6-99.7 6.7-143.4z"/>
		<path id="Path 9" fill-rule="evenodd" class="s0" d="m640.2 819h-285.3c-52.4 0-94.8-45.5-127.2-102.7h-5.8c-32 0-62 17.4-77.7 45.4l-6.7 12c-4 7.6-12 12-20.3 12-4 0-7.7-1-11.3-3-11.4-6.4-15.4-20.7-9-31.7l6.6-12c21.2-37.6 59-62.8 101.2-68.2-8.3-18.4-15.7-37.1-22.2-55.1q-0.2-0.7-0.4-1.3l-3.9-0.7c-35.7-7.4-73 8.3-92.7 39-4.3 7-12 10.6-19.6 10.6-4.4 0-8.7-1.3-12.7-3.6-11-7-14-21.4-7-32.4 27.7-43 78.4-66.8 128.7-61.6 0.5-10.6 2.3-21.2 5.4-31.4l-28.1-11c-33.7-13-71.6-5-96.7 21l-15.6 16c-4.4 5-10.3 7.4-16.4 7.4-5.6 0-11.6-2.4-16.3-6.7-9.3-9-9.6-23.7-0.7-33l15.7-16c38.3-39.7 96-52.3 147-32.3l32.7 12.7q3.9-5 8.3-9.7l4.5-4.8c-47.2-20.8-64.9-52.2-71.5-73.2-39.8-5.3-72.1-27.2-93.7-64.4-31.3-54-30.6-121.3 2.4-176.3l90.6-151.7c5.4-9 15.7-13.3 25.7-10.6 10 2.6 17 11.3 17.7 21.6l7 155.4 75.6-53.7c7-5 16.4-5.7 24.4-1.7 7.6 4 12.7 12 12.7 20.7 0 40.3 0 101.7-16.1 155-20.4 68.7-59.6 95.2-96.4 103.7 7.7 12.5 23.6 28.3 56.3 38.8l8.8-9.2c32.2-33.8 72.8-58.3 117-71.4-10.4-9.3-17-22.8-17-37.9 0-28 22.7-50.7 50.7-50.7 28 0 50.6 22.7 50.6 50.7 0 9.9-2.8 19.2-7.7 27h91.5c-5-8-7.8-17.3-7.8-27 0-18.1 9.7-34.8 25.4-43.9 15.7-9 35-9 50.6 0 15.7 9.1 25.4 25.8 25.4 43.9 0 14.6-6.3 28.4-17 37.9 44.2 13.1 84.8 37.6 117 71.4l48 50.4c34 35.6 44.6 86.6 27.6 133-33.3 93-90.6 203.3-172.3 203.3zm-190-422c-59.3 0-117 24.7-157.7 67.7l-17 17.8q-0.8 1-1.8 2l-29.2 30.5c-21.6 22.7-28.3 55.3-17.6 85 39 108 87 172.3 128.7 172.3h285.3c41.3 0 89.7-64.3 128.6-172.3 10.7-29.7 4-62-17.6-85l-48-50.3c-41-43-98.3-67.7-157.7-67.7zm-307.3-294l-50.7 85c-24 40.3-24.7 89.7-2 129 16.7 28.7 40.4 42.7 72.7 42.7 72.6 0 91.7-77 95.3-170l-73 52c-7 5-16 5.6-23.6 2-7.7-3.7-12.7-11.4-13.1-20z"/>
		<path id="Path 10" class="s3" d="m678.9 622l-44-15.7 9-25.6c7.3-20.4 0-43.7-17.7-56.4l-40.3-29.6 27.3-37.7 40.3 29.7c34 25 48 70 34 109.6z"/>
	</g>
</svg>