<svg xmlns="http://www.w3.org/2000/svg" viewBox="0 0 1024 1024" version="1.1"><path fill="currentColor" d="M853.333333 128H170.666667C76.8 128 0 204.8 0 298.666667v426.666666c0 93.866667 76.8 170.666667 170.666667 170.666667h682.666666c93.866667 0 170.666667-76.8 170.666667-170.666667V298.666667c0-93.866667-76.8-170.666667-170.666667-170.666667z m68.266667 247.466667l-337.066667 226.133333c-21.333333 12.8-46.933333 21.333333-72.533333 21.333333s-51.2-8.533333-72.533333-21.333333L102.4 375.466667c-17.066667-12.8-21.333333-38.4-8.533333-59.733334 12.8-17.066667 38.4-21.333333 59.733333-8.533333l337.066667 226.133333c12.8 8.533333 34.133333 8.533333 46.933333 0l337.066667-226.133333c21.333333-12.8 46.933333-8.533333 59.733333 12.8 8.533333 17.066667 4.266667 42.666667-12.8 55.466667z"></path></svg>